<svg xmlns="http://www.w3.org/2000/svg" viewBox="0 0 19.5 20.21"><defs><style>.cls-1{fill:none;stroke:#000102;stroke-linecap:round;stroke-linejoin:round;stroke-width:1.2px;}</style></defs><title>자산 1</title><g id="레이어_2" data-name="레이어 2"><g id="Layer_1" data-name="Layer 1"><path class="cls-1" d="M15.12,6a5.37,5.37,0,0,0-10.7-.68,5.27,5.27,0,0,0,1,3.78L9,14.72a.93.93,0,0,0,1.52,0l3.62-5.65A5.33,5.33,0,0,0,15.12,6Z"/><circle class="cls-1" cx="9.75" cy="5.74" r="2.41"/><polyline class="cls-1" points="6.54 11.01 5.21 10.61 0.6 11.59 0.6 19 5.51 18.09 9.65 19.61 14.39 18.09 18.9 19 18.9 11.59 14.39 10.61 12.99 11.01"/><line class="cls-1" x1="5.21" y1="18.09" x2="5.21" y2="10.61"/><line class="cls-1" x1="14.39" y1="18.09" x2="14.39" y2="10.61"/><line class="cls-1" x1="9.65" y1="19.61" x2="9.65" y2="15.37"/></g></g></svg>