<svg xmlns="http://www.w3.org/2000/svg" viewBox="0 0 121.86 84.05"><defs><style>.cls-1{fill:#fff;}</style></defs><title>자산 1</title><g id="레이어_2" data-name="레이어 2"><g id="Layer_1" data-name="Layer 1"><path class="cls-1" d="M9,79.53c-.08-1.38-.16-3.06-.16-4.28h0c-.36,1.15-.75,2.4-1.25,3.77L5.79,83.83h-1L3.2,79.11c-.47-1.42-.86-2.69-1.13-3.86H2c0,1.23-.11,2.88-.2,4.39l-.26,4.25H.36L1.05,74H2.69l1.69,4.8c.41,1.22.74,2.31,1,3.34h0c.27-1,.62-2.09,1.06-3.34L8.24,74H9.87l.62,9.92H9.23Z"/><path class="cls-1" d="M17.7,74v5.88c0,2.21,1,3.16,2.31,3.16s2.42-1,2.42-3.16V74h1.3v5.8c0,3-1.61,4.28-3.76,4.28s-3.56-1.15-3.56-4.24V74Z"/><path class="cls-1" d="M28.74,82.33A4.32,4.32,0,0,0,31,83c1.31,0,2.08-.69,2.08-1.7s-.53-1.45-1.87-2c-1.62-.58-2.63-1.44-2.63-2.82,0-1.55,1.29-2.7,3.22-2.7a4.46,4.46,0,0,1,2.18.49l-.36,1a3.57,3.57,0,0,0-1.87-.48c-1.36,0-1.87.81-1.87,1.49,0,.93.6,1.38,2,1.91,1.67.65,2.51,1.46,2.51,2.92s-1.12,2.87-3.46,2.87a5.06,5.06,0,0,1-2.53-.65Z"/><path class="cls-1" d="M41.39,74v9.92H40.1V74Z"/><path class="cls-1" d="M54.5,83.58a6.2,6.2,0,0,1-2.62.47c-2.8,0-4.88-1.76-4.88-5a4.93,4.93,0,0,1,5.18-5.22,5.47,5.47,0,0,1,2.35.44l-.32,1.05a4.62,4.62,0,0,0-2-.41c-2.32,0-3.87,1.48-3.87,4.09,0,2.44,1.4,4,3.8,4a5.13,5.13,0,0,0,2.1-.41Z"/><path class="cls-1" d="M62.43,74v9.92h-1.3V74Z"/><path class="cls-1" d="M68.46,82.33a4.29,4.29,0,0,0,2.28.65c1.31,0,2.07-.69,2.07-1.7s-.53-1.45-1.87-2c-1.61-.58-2.62-1.44-2.62-2.82,0-1.55,1.28-2.7,3.21-2.7a4.4,4.4,0,0,1,2.18.49l-.35,1a3.57,3.57,0,0,0-1.87-.48c-1.36,0-1.87.81-1.87,1.49,0,.93.6,1.38,2,1.91,1.68.65,2.52,1.46,2.52,2.92S73,84.05,70.65,84.05a5,5,0,0,1-2.53-.65Z"/><path class="cls-1" d="M78.82,74h1.29v8.85h4.24v1.07H78.82Z"/><path class="cls-1" d="M90.34,80.77l-1,3.12H88L91.37,74H92.9l3.39,9.92H94.92l-1.06-3.12Zm3.27-1-1-2.86c-.22-.65-.37-1.24-.51-1.81h0c-.15.57-.3,1.19-.5,1.8l-1,2.87Z"/><path class="cls-1" d="M100.7,83.89V74h1.41l3.17,5A27.16,27.16,0,0,1,107,82.21h0c-.12-1.33-.15-2.54-.15-4.08V74h1.21v9.92h-1.29l-3.15-5a29.37,29.37,0,0,1-1.85-3.32l0,0c.07,1.25.09,2.44.09,4.09v4.24Z"/><path class="cls-1" d="M113.35,74.11a16.54,16.54,0,0,1,2.72-.22,5.73,5.73,0,0,1,4,1.24,4.51,4.51,0,0,1,1.41,3.56,5.28,5.28,0,0,1-1.43,3.86,6.15,6.15,0,0,1-4.4,1.43,21,21,0,0,1-2.32-.12Zm1.27,8.78a11.71,11.71,0,0,0,1.3.06c2.76,0,4.23-1.54,4.23-4.21,0-2.34-1.31-3.83-4-3.83a7.71,7.71,0,0,0-1.51.13Z"/><path class="cls-1" d="M74.58,51.28V12a29.44,29.44,0,0,0-1.31,45.94l.08-.17A14.49,14.49,0,0,0,74.58,51.28Z"/><path class="cls-1" d="M62.88,35.47V65c6.65,0,9.88-6,10.39-7.05A29.43,29.43,0,0,1,62.88,35.47Z"/><path class="cls-1" d="M74.58,12V.19S67.12-.69,64.45,5.78a22,22,0,0,0-1.57,8.37V35.47A29.44,29.44,0,0,1,74.58,12Z"/><path class="cls-1" d="M58,17a16.79,16.79,0,0,0-1.37-6.3,17.77,17.77,0,0,0-3.76-5.57,18,18,0,0,0-5.57-3.76,17.43,17.43,0,0,0-13.64,0,18,18,0,0,0-5.57,3.76A17.51,17.51,0,0,0,23,17.55V65H34.81V17.55a5.38,5.38,0,0,1,1.67-4,5.76,5.76,0,0,1,8,0,5.45,5.45,0,0,1,1.61,3.86h0V51.25a14.49,14.49,0,0,0,1.23,6.48S50.74,65,58,65V17Z"/><path class="cls-1" d="M20.76,9.28a17.47,17.47,0,0,1,3.71-5.57,17.15,17.15,0,0,1,1.65-1.42A16.8,16.8,0,0,0,17.54,0a17,17,0,0,0-6.82,1.39,17.64,17.64,0,0,0-9.33,9.33A16.92,16.92,0,0,0,0,17.55V65H11.88V17.55a5.55,5.55,0,0,1,7.92-5.14A17.15,17.15,0,0,1,20.76,9.28Z"/><path class="cls-1" d="M121.8.09V0l-.32.41L109.91,11.86v0A29.1,29.1,0,0,0,74.58,12V34.68a17.77,17.77,0,1,1,0,1.68V51.28a14.49,14.49,0,0,1-1.23,6.48l-.08.17a29.46,29.46,0,0,0,48.57-21.48h0V0Z"/></g></g></svg>