<svg xmlns="http://www.w3.org/2000/svg" viewBox="0 0 137.65 102.53"><defs><style>.cls-1{fill:#fff;}</style></defs><title>자산 1</title><g id="레이어_2" data-name="레이어 2"><g id="Layer_1" data-name="Layer 1"><path class="cls-1" d="M68.83,61.78a7,7,0,0,1,7,7h10.5a17.52,17.52,0,1,0-35,0H61.82A7,7,0,0,1,68.83,61.78Z"/><path class="cls-1" d="M.38,102.53c-.29,0-.29,0-.29-.23V96.54c0-.21,0-.22.27-.22H4c.09,0,.14,0,.14.12v.29c0,.08,0,.11-.14.11H.85v2.21H3.79q.15,0,.15.12v.3q0,.12-.15.12H.85V102H4.07c.1,0,.15.05.15.12v.3q0,.12-.15.12Z"/><path class="cls-1" d="M11.22,102.52h-.47c-.09,0-.15,0-.15-.11V96.55c0-.23,0-.23.3-.23h.47c.18,0,.21,0,.28.12l3.9,5.4v-5.4c0-.08,0-.12.14-.12h.46c.09,0,.14,0,.14.12v5.85c0,.23,0,.23-.29.23h-.63a.19.19,0,0,1-.2-.1l-3.81-5.31v5.3C11.36,102.48,11.31,102.52,11.22,102.52Z"/><path class="cls-1" d="M25.09,96.86v5.55c0,.07-.05.11-.14.11h-.48c-.09,0-.15,0-.15-.11V96.86H22.19c-.09,0-.14,0-.14-.12v-.29c0-.07.05-.11.14-.11h5c.09,0,.15,0,.15.11v.29c0,.07-.06.12-.15.12Z"/><path class="cls-1" d="M33.47,102.53c-.29,0-.29,0-.29-.23V96.54c0-.21,0-.22.27-.22H37c.09,0,.15,0,.15.12v.29c0,.08-.06.11-.15.11h-3.1v2.21h3c.09,0,.14,0,.14.12v.3c0,.08-.05.12-.14.12h-3V102h3.23c.09,0,.14.05.14.12v.3c0,.08-.05.12-.14.12Z"/><path class="cls-1" d="M48.84,102.41s0,.11-.08.11h-.54a.26.26,0,0,1-.23-.11c-.62-1-1-1.68-1.26-2.08-.15-.23-.26-.4-.33-.53a5.34,5.34,0,0,1-.95.07h-.87v2.54c0,.07-.06.11-.15.11H44c-.1,0-.15,0-.15-.11V96.59c0-.24,0-.25.31-.25h2c1.56,0,2.29.71,2.29,1.8a1.85,1.85,0,0,1-1.33,1.5Zm-1.23-4.27c0-.94-.49-1.28-2-1.28H44.58v2.48h1.08C46.79,99.34,47.61,98.88,47.61,98.14Z"/><path class="cls-1" d="M57.18,96.86v5.55c0,.07,0,.11-.15.11h-.47c-.09,0-.14,0-.14-.11V96.86H54.28c-.09,0-.14,0-.14-.12v-.29c0-.07,0-.11.14-.11h5c.09,0,.15,0,.15.11v.29c0,.07-.06.12-.15.12Z"/><path class="cls-1" d="M70.29,102.41c0,.07,0,.11-.1.11H69.7a.18.18,0,0,1-.2-.11l-.76-1.54H64.85c-.26.52-.51,1-.76,1.54a.18.18,0,0,1-.19.11h-.49c-.09,0-.12,0-.09-.11l3-6a.17.17,0,0,1,.18-.1h.63c.1,0,.16,0,.19.1Zm-1.8-2.08c-.58-1.16-1.09-2.27-1.67-3.43-.57,1.16-1.12,2.27-1.7,3.43Z"/><path class="cls-1" d="M76.78,102.52h-.5c-.09,0-.14,0-.14-.11v-6c0-.07,0-.11.14-.11h.5c.09,0,.14,0,.14.11v6C76.92,102.48,76.87,102.52,76.78,102.52Z"/><path class="cls-1" d="M83.91,102.52h-.47c-.09,0-.14,0-.14-.11V96.55c0-.23,0-.23.29-.23h.48c.17,0,.2,0,.28.12l3.89,5.4v-5.4q0-.12.15-.12h.45q.15,0,.15.12v5.85c0,.23,0,.23-.29.23h-.63c-.12,0-.13,0-.21-.1l-3.81-5.31v5.3C84.05,102.48,84,102.52,83.91,102.52Z"/><path class="cls-1" d="M103.46,102.41c0,.07,0,.11-.14.11h-.47c-.09,0-.14,0-.14-.11V96.86c-.51,1-1,1.94-1.38,2.75-.68,1.38-1.39,2.77-1.39,2.79a.18.18,0,0,1-.16.08h-.46c-.1,0-.13,0-.16-.08l-2.85-5.54v5.55c0,.07-.06.11-.15.11H95.7c-.1,0-.15,0-.15-.11V96.55c0-.23,0-.23.29-.23h.77c.12,0,.15,0,.19.1l2.75,5.41,2.67-5.42a.17.17,0,0,1,.17-.09h.78c.29,0,.29,0,.29.23Z"/><path class="cls-1" d="M110.56,102.53c-.29,0-.29,0-.29-.23V96.54c0-.21,0-.22.26-.22h3.59q.15,0,.15.12v.29c0,.08,0,.11-.15.11H111v2.21h3c.09,0,.14,0,.14.12v.3c0,.08,0,.12-.14.12h-3V102h3.23c.09,0,.14.05.14.12v.3c0,.08,0,.12-.14.12Z"/><path class="cls-1" d="M121.39,102.52h-.46c-.1,0-.15,0-.15-.11V96.55c0-.23,0-.23.29-.23h.48c.17,0,.2,0,.27.12l3.9,5.4v-5.4c0-.08.06-.12.15-.12h.46c.09,0,.14,0,.14.12v5.85c0,.23,0,.23-.29.23h-.63a.19.19,0,0,1-.21-.1l-3.81-5.31v5.3C121.53,102.48,121.48,102.52,121.39,102.52Z"/><path class="cls-1" d="M135.26,96.86v5.55c0,.07,0,.11-.14.11h-.48c-.09,0-.14,0-.14-.11V96.86h-2.13c-.09,0-.15,0-.15-.12v-.29c0-.07.06-.11.15-.11h5c.09,0,.14,0,.14.11v.29c0,.07-.05.12-.14.12Z"/><path class="cls-1" d="M0,73.56H6.87L10.21,84h.1l3.34-10.48h6.79V91H15.39V79.21h-.1L11.59,91H8L4.36,79.19H4.23V91H0Z"/><path class="cls-1" d="M23.14,84.74V73.56h5.15v11c0,2.24.95,3.14,3,3.14s2.87-.9,2.87-3.17v-11h4.57V84.72c0,4.31-2.39,6.53-7.62,6.53S23.14,89.06,23.14,84.74Z"/><path class="cls-1" d="M40.66,90.23V86.67a15.73,15.73,0,0,0,5.41,1c2,0,2.85-.58,2.85-1.63s-.46-1.31-2.23-1.66l-1.39-.24c-2.9-.53-4.69-1.76-4.69-5.41,0-3.29,2.15-5.43,6.79-5.43a12.31,12.31,0,0,1,5.44.9v3.51a15.29,15.29,0,0,0-5-.83c-1.64,0-2.48.48-2.48,1.48s.53,1.27,2.15,1.59l1.36.24c3.23.59,5,1.8,5,5.34,0,3.73-2.52,5.75-7.26,5.75A14.53,14.53,0,0,1,40.66,90.23Z"/><path class="cls-1" d="M56.05,73.56h5.16V91H56.05Z"/><path class="cls-1" d="M63.36,82.6V82c0-6.34,4-8.72,9.06-8.72a11.22,11.22,0,0,1,4.77.75v3.53a11.11,11.11,0,0,0-3.75-.6c-3,0-4.62,1.36-4.62,4.7v.78c0,3.34,1.18,5.14,4.57,5.14a10.24,10.24,0,0,0,4-.73v3.48a12.31,12.31,0,0,1-5.15.93C66.65,91.25,63.36,88.5,63.36,82.6Z"/><path class="cls-1" d="M83.45,76H78.21V73.22H92.55V76H87.29V91H83.45Z"/><path class="cls-1" d="M94.4,73.22h6.7c4.43,0,6.74,1.73,6.74,5.28a4.46,4.46,0,0,1-3.33,4.56v.13L109.15,91h-4.44L101,84H98.27v7H94.4Zm6.23,8.36c2.29,0,3.21-1,3.21-2.9s-1-2.76-3.23-2.76H98.22v5.66Z"/><path class="cls-1" d="M110.66,73.22h12V76h-8.13v4.5h6.33v2.73h-6.33v5h8.31V91H110.66Z"/><path class="cls-1" d="M125.46,73.22h12V76h-8.13v4.5h6.34v2.73h-6.34v5h8.31V91H125.46Z"/><path class="cls-1" d="M12.33,43,6.25,40.15C5.38,42.06,4.58,44,3.88,46A71.41,71.41,0,0,0,12.33,43Z"/><path class="cls-1" d="M73.47,20.36l12.65-17,0-1.19A69.45,69.45,0,0,0,72.52.06Z"/><path class="cls-1" d="M52.58,20.73,66.19,38.05,67.32,0A68.65,68.65,0,0,0,48.57,3Z"/><path class="cls-1" d="M102.87,11.83l1.08-.38L105,21.85,109.14,13A68.63,68.63,0,0,0,89.57,3.15L73.83,28.22l.64,13.62a26.5,26.5,0,0,1,4.42,1.32l.31-.22.18.42a27.24,27.24,0,0,1,5.79,3.27l1.2-15.21L87.45,31l-.26,12.14L92.83,31.8,93.55,33,87.19,48.28a27.59,27.59,0,0,1,5,5.87l11.08-15.42Z"/><path class="cls-1" d="M43.51,58a27.59,27.59,0,0,1,18-15.71l-2.77-4.37L34.77,27.65v-1l21.11,6.85L39,6.76a68.6,68.6,0,0,0-16.39,11l4.87,8.69.15-9.22h1.07l.64,23.82c2.72,3.24,5.58,6.65,8.49,10.1l3.75-15.34,1.08-.38L39.25,52.92Z"/><path class="cls-1" d="M106.3,34.45,117,19.61a70,70,0,0,0-6.91-5.94l-4.7,11.48Z"/><path class="cls-1" d="M49.13,16.34,47.28,3.42Q44,4.5,40.91,5.88Z"/><path class="cls-1" d="M27.28,38.67l.12-8.33L21.54,18.81a70.77,70.77,0,0,0-5.76,6.11Z"/><path class="cls-1" d="M31.71,68.57,11,58l1.08-.39L41.31,68.08a29.37,29.37,0,0,1,.24-3c-3.16-4.36-6.13-8.23-9.21-12.51h0L17,45.27c-2.73.52-9.48,1.81-13.74,2.55A68.9,68.9,0,0,0,0,68.78H31Z"/><path class="cls-1" d="M126,30.39l-7.76,16.25,14-4.85A69.66,69.66,0,0,0,126,30.39Z"/><path class="cls-1" d="M95.19,60.88a27.15,27.15,0,0,1,1.16,7.9h7l.79-.2.28-.25c3.18-2.86,14.72-13.26,15.34-14.25l1.43-.39s-9.64,10-12.72,13.75c9.28-2.48,17.74-4.92,17.74-4.92l-.72,1.15a118.51,118.51,0,0,1-14.06,5.11h26.24a68.72,68.72,0,0,0-4.84-25.35Z"/><path class="cls-1" d="M125.47,29.88l.08-.05A67.94,67.94,0,0,0,118,20.65L98.77,53.4l15.82-5.5Z"/><path class="cls-1" d="M21.2,37.08l.34.08c-2.83-4-5.31-7.58-7.21-10.39-1.48,1.93-2.87,3.92-4.16,6,4.52,1.83,10.32,4,11,4.31Z"/><path class="cls-1" d="M25,42h0l-1.64-1.06c-2.18-.83-9.16-4.42-13.9-6.89-1,1.77-2,3.59-2.89,5.45l22.23,7.83Q26.8,44.59,25,42Z"/></g></g></svg>