<svg xmlns="http://www.w3.org/2000/svg" viewBox="0 0 271.86 228.7"><defs><style>.cls-1{fill:#fff;}</style></defs><title>자산 1</title><g id="레이어_2" data-name="레이어 2"><g id="Layer_1" data-name="Layer 1"><path class="cls-1" d="M216.15,90.11a10.7,10.7,0,1,0,10.7,10.69A10.7,10.7,0,0,0,216.15,90.11Z"/><path class="cls-1" d="M228.92,0h-186A43,43,0,0,0,0,43.09V145.31A43,43,0,0,0,42.94,188.4H107L128.87,224a7.51,7.51,0,0,0,.71,1,7.32,7.32,0,0,0,12.68.05A5.38,5.38,0,0,0,143,224l21.86-35.6h64.06a43,43,0,0,0,42.94-43.09V43.09A43,43,0,0,0,228.92,0ZM60.38,126.14c-10,0-14-7.17-14-7.17v5.44H29.58V55.06H46.23V81.45A22.11,22.11,0,0,1,60.38,74.9c22.59,0,23.45,25.36,23.45,25.36C83.83,125.27,60.38,126.14,60.38,126.14Zm52.44-46.58v44.85h-16v-41c0-14.15-7.6-13.81-7.6-13.81v-16C113.5,53.51,112.82,79.56,112.82,79.56Zm67.36,21.24c0,25.3-28.14,25.34-28.14,25.34-28.38,0-27.5-25.34-27.5-25.34,0-25.68,27.5-25.68,27.5-25.68C181.09,75.12,180.18,100.8,180.18,100.8Zm62.09,23c0,26.26-24.32,26-24.32,26h-6.46V135h4c11.78,0,10.61-12.16,10.61-12.16V119c-5.17,6.73-14.61,6.34-14.61,6.34-23.16,0-22.9-24.68-22.9-24.68,0-26.51,23.54-25.51,23.54-25.51a18.19,18.19,0,0,1,14,6.33V76.8h16.17Z"/><path class="cls-1" d="M152.05,90.11a10.7,10.7,0,1,0,10.69,10.69A10.7,10.7,0,0,0,152.05,90.11Z"/><path class="cls-1" d="M56.71,90.11a10.7,10.7,0,1,0,10.7,10.69A10.7,10.7,0,0,0,56.71,90.11Z"/></g></g></svg>