<svg xmlns="http://www.w3.org/2000/svg" viewBox="0 0 283.46 110"><defs><style>.cls-1{fill:#ff3c28;}</style></defs><title>자산 1</title><g id="레이어_2" data-name="레이어 2"><g id="레이어_1-2" data-name="레이어 1"><path class="cls-1" d="M38,1C66.29.59,72.75,22.69,72.75,37.45S61.21,54.28,61.21,54.28C71.87,56,80.38,65.42,80.38,84.39S62,104.53,62,104.53l-30.9,2.15L14.18,33.15c0-5.57,3.71-10.07,11.05-10.07A8.83,8.83,0,0,1,34,29.73l3.32,15.15H47c1.08,0,9.58-2.05,6.65-14.76S40.87,17.21,40.87,17.21H17.41c-7.83,0-11.64-6.75-11.64-6.75L0,0Zm7.72,88L55,88.2s7.24-.39,7.24-9.68-4.79-17.7-12.81-17.7h-8.8Z"/><path class="cls-1" d="M83,25.13H103l4.21,65.61s.29,7.33,6.35,7.33,6.16-6.45,6.16-7.43-1.56-60.82-1.56-60.82S119.19,22,127.41,22s8.8,8,8.8,8l1,76.66s-6.16.58-8.12.58-7.33-1-8.9-5.86c0,0-2.93,8.6-15.25,8.6S89.67,97.88,89.67,97.88Z"/><path class="cls-1" d="M164.56,4.6a15,15,0,0,1,15.26,10.46A11.72,11.72,0,0,1,191,7.63h5.87L189,77.35s-.49,18.57-23.57,18.57c0,0-18.67,1.27-19.65-14.37,0,0-.1-8.51,7.14-8.51,0,0,7-.68,7,7.34,0,0,.49,6.65,5.67,6.65s7.92-3.13,9.09-22.79c0,0-3.91,7.14-15,7.14s-16.63-6.94-15.26-27.77S145.4,5.48,164.56,4.6Zm-1.07,23c-.39,2.83-1.86,20.63-1.86,23.76s.88,9.19,6.36,9.19,6.45-5.28,7.13-8.9a184.07,184.07,0,0,0,2.25-23.27c.49-11.25-6.06-11-6.06-11C165.15,17.31,163.88,24.74,163.49,27.58Z"/><path class="cls-1" d="M196.83,70.3H211.6s-3.72,11.64,3,11.64,7.53-9.68,7.53-9.68.68-5.87-7-10.07S201.43,50.75,202,41.75s4.89-29.33,26.5-29.33c0,0,16.33-1.08,16.33,14.86S236.92,43.71,235,43.71c0,0-6.16-.1-6.16-5.87s2.44-11.14-2.94-11.14-7.62,7.52-7.62,9.87.19,5.28,5,9.09S236.82,54.07,236.82,66s-9.09,28-26.2,28S195.07,82,196.83,70.3Z"/><path class="cls-1" d="M244.39,77.84A7.56,7.56,0,1,0,252,70.27,7.56,7.56,0,0,0,244.39,77.84Z"/><path class="cls-1" d="M262.83,8.31h20.63L262,61.8s-1.76,4.59-6.45,4.59c0,0-6.06.2-4.79-7.13Z"/></g></g></svg>