<svg xmlns="http://www.w3.org/2000/svg" viewBox="0 0 24.62 19.91"><defs><style>.cls-1{fill:#0a0d10;}</style></defs><title>자산 1</title><g id="레이어_2" data-name="레이어 2"><g id="Layer_1" data-name="Layer 1"><path class="cls-1" d="M2.71,16.77a.72.72,0,0,1-.61-1.1,5,5,0,0,0,.69-1.88,5.25,5.25,0,0,0,0-1.12A6.61,6.61,0,0,1,0,7.43C0,3.33,4.35,0,9.69,0s9.69,3.33,9.69,7.43S15,14.85,9.69,14.85a12.62,12.62,0,0,1-2.53-.25A7.27,7.27,0,0,1,5.29,16a7.6,7.6,0,0,1-2.47.79Zm7-15.33c-4.55,0-8.25,2.69-8.25,6a5.29,5.29,0,0,0,2.48,4.25.74.74,0,0,1,.29.48,6.67,6.67,0,0,1,0,1.84A6.23,6.23,0,0,1,4,15a4.46,4.46,0,0,0,.63-.28,6.05,6.05,0,0,0,1.76-1.37.73.73,0,0,1,.71-.22,10.82,10.82,0,0,0,2.6.31c4.55,0,8.25-2.68,8.25-6S14.24,1.44,9.69,1.44Z"/><path class="cls-1" d="M21.91,19.91H21.8a7.68,7.68,0,0,1-2.47-.79,7.27,7.27,0,0,1-1.87-1.37,12.47,12.47,0,0,1-7.2-.66l.56-1.33a11,11,0,0,0,6.71.5.71.71,0,0,1,.71.22A5.86,5.86,0,0,0,20,17.83a6,6,0,0,0,.63.29,6,6,0,0,1-.22-2.81.72.72,0,0,1,.29-.48,5.29,5.29,0,0,0,2.48-4.26,5.53,5.53,0,0,0-3-4.61l.74-1.23a6.92,6.92,0,0,1,3.7,5.84,6.61,6.61,0,0,1-2.82,5.24,5.25,5.25,0,0,0,0,1.12,4.91,4.91,0,0,0,.69,1.88.72.72,0,0,1-.61,1.1Z"/><path class="cls-1" d="M6.2,6.51a1,1,0,1,0,1,1A1,1,0,0,0,6.2,6.51Z"/><path class="cls-1" d="M9.87,6.51a1,1,0,1,0,1.05,1A1,1,0,0,0,9.87,6.51Z"/><path class="cls-1" d="M13.53,6.51a1,1,0,1,0,1.05,1A1,1,0,0,0,13.53,6.51Z"/></g></g></svg>