<svg xmlns="http://www.w3.org/2000/svg" viewBox="0 0 340.29 382.58"><defs><style>.cls-1{fill:#df2e54;}.cls-2{fill:#2ab0ba;}.cls-3{fill:#1fafb9;}.cls-4{fill:#fff;}</style></defs><title>자산 1</title><g id="레이어_2" data-name="레이어 2"><g id="Isolation_Mode" data-name="Isolation Mode"><path class="cls-1" d="M273.27,74.23c-23.22-25.55-21.92-58.74-21.92-58.74H233.28C236.24,32.15,245.36,58.38,273.27,74.23Z"/><path class="cls-1" d="M116.74,197.74a52.42,52.42,0,0,0-22,100,52.42,52.42,0,0,1,57.53-82V150.21a117.38,117.38,0,0,0-16.11-1.11c-1.12,0-2.24,0-3.35.05v51.13A52.34,52.34,0,0,0,116.74,197.74Z"/><path class="cls-1" d="M320.83,100.15v51.53s-38.91,5.56-88.15-27.79v59.55c0,40.36,5.26,82.31-13.43,119.66-19.58,39.12-58.6,64-102.51,64A116.25,116.25,0,0,1,54.24,349a116.38,116.38,0,0,0,82,33.61c43.91,0,82.93-24.87,102.51-64,18.69-37.35,13.43-79.29,13.43-119.66V139.37c49.24,33.36,88.15,27.8,88.15,27.8V102.84A137.2,137.2,0,0,1,320.83,100.15Z"/><path class="cls-2" d="M320.83,100.15V87.36c-20-1.38-35.53-6.29-47.56-13.13C283.56,85.55,298.67,95.37,320.83,100.15Z"/><path class="cls-3" d="M19.46,265.84A116.74,116.74,0,0,1,132.85,149.15V134.73A116.75,116.75,0,0,0,54.24,349,116.39,116.39,0,0,1,19.46,265.84Z"/><path class="cls-3" d="M136.2,318.05c28.5,0,49.82-22.21,51.88-49.7,2.65-35.44,1.32-71,1.32-106.5V15.49h43.88A80.62,80.62,0,0,1,231.89,0H170V146.36c0,35.5,1.33,71.06-1.33,106.5-2.06,27.49-23.38,49.71-51.88,49.71a52.33,52.33,0,0,1-22-4.82A52.31,52.31,0,0,0,136.2,318.05Z"/><path class="cls-4" d="M219.25,303.1c18.69-37.35,13.43-79.3,13.43-119.66V123.89c49.24,33.35,88.15,27.79,88.15,27.79V100.15c-22.16-4.78-37.27-14.6-47.56-25.92-27.91-15.85-37-42.08-40-58.74H189.4V161.85c0,35.49,1.33,71.06-1.32,106.5-2.06,27.49-23.38,49.7-51.88,49.7a52.31,52.31,0,0,1-41.42-20.3,52.41,52.41,0,0,1,38.07-97.47V149.15A116.74,116.74,0,0,0,54.24,349a116.25,116.25,0,0,0,62.5,18.12C160.65,367.09,199.67,342.22,219.25,303.1Z"/></g></g></svg>