<svg xmlns="http://www.w3.org/2000/svg" viewBox="0 0 125 40"><defs><style>.cls-1{fill:red;}.cls-2{fill:#fff;}.cls-3{fill:none;}</style></defs><title>자산 1</title><g id="레이어_2" data-name="레이어 2"><g id="logos"><path id="lozenge-path" class="cls-1" d="M25.41,13.75a3.26,3.26,0,0,0-2.3-2.29c-2-.54-10.13-.54-10.13-.54s-8.12,0-10.14.54a3.26,3.26,0,0,0-2.3,2.29A34,34,0,0,0,0,20a34,34,0,0,0,.54,6.25,3.26,3.26,0,0,0,2.3,2.29c2,.54,10.14.54,10.14.54s8.11,0,10.13-.54a3.26,3.26,0,0,0,2.3-2.29A34,34,0,0,0,26,20,34,34,0,0,0,25.41,13.75Z"/><polygon id="play-polygon" class="cls-2" points="10.38 23.89 17.12 20 10.38 16.11 10.38 23.89"/><g id="youtube-paths"><path class="cls-2" d="M37.67,27.44a2.79,2.79,0,0,1-1.1-1.61,10.87,10.87,0,0,1-.32-2.92V21.26a9.51,9.51,0,0,1,.37-3,3,3,0,0,1,1.16-1.62,3.73,3.73,0,0,1,2.07-.51,3.5,3.5,0,0,1,2,.52A2.92,2.92,0,0,1,43,18.32a9.75,9.75,0,0,1,.36,2.94v1.65A10,10,0,0,1,43,25.83a2.84,2.84,0,0,1-1.11,1.62,3.74,3.74,0,0,1-2.09.51A3.71,3.71,0,0,1,37.67,27.44Zm2.87-1.78a5.58,5.58,0,0,0,.22-1.82V20.3a5.23,5.23,0,0,0-.22-1.79.76.76,0,0,0-.75-.57.75.75,0,0,0-.73.57,5.45,5.45,0,0,0-.22,1.79v3.54a6,6,0,0,0,.2,1.82.78.78,0,0,0,1.5,0Z"/><path class="cls-2" d="M77.08,22.94v.58c0,.73,0,1.27.06,1.64a1.73,1.73,0,0,0,.27.8.8.8,0,0,0,.63.25.79.79,0,0,0,.79-.45,3.84,3.84,0,0,0,.23-1.48l2.21.13a3.74,3.74,0,0,1,0,.4,3,3,0,0,1-.86,2.36A3.52,3.52,0,0,1,78,28a2.89,2.89,0,0,1-2.66-1.19,6.91,6.91,0,0,1-.76-3.67v-2a6.94,6.94,0,0,1,.79-3.74,3,3,0,0,1,2.7-1.17,3.57,3.57,0,0,1,2,.48,2.62,2.62,0,0,1,1,1.5A10.92,10.92,0,0,1,81.37,21v2Zm.32-4.78a1.72,1.72,0,0,0-.26.78c0,.37-.06.92-.06,1.66v.82H79V20.6a13.88,13.88,0,0,0-.07-1.66,1.57,1.57,0,0,0-.27-.79.73.73,0,0,0-.6-.24A.71.71,0,0,0,77.4,18.16Z"/><path class="cls-2" d="M31.43,22.73,28.52,12.21h2.54l1,4.76c.26,1.18.45,2.18.57,3h.08c.09-.59.28-1.59.57-3l1.06-4.79H36.9L34,22.73v5.05H31.43Z"/><path class="cls-2" d="M51.6,16.4V27.77h-2l-.22-1.39h-.06A2.62,2.62,0,0,1,46.88,28a2,2,0,0,1-1.68-.74,4,4,0,0,1-.53-2.32V16.4h2.56v8.35a2.62,2.62,0,0,0,.16,1.09.59.59,0,0,0,.56.32,1.1,1.1,0,0,0,.64-.2,1.26,1.26,0,0,0,.45-.52v-9Z"/><path class="cls-2" d="M64.74,16.4V27.77h-2l-.23-1.39h0A2.62,2.62,0,0,1,60,28a1.94,1.94,0,0,1-1.67-.74,4,4,0,0,1-.54-2.32V16.4h2.56v8.35a2.59,2.59,0,0,0,.17,1.09.57.57,0,0,0,.55.32,1.08,1.08,0,0,0,.64-.2,1.21,1.21,0,0,0,.46-.52v-9Z"/><path class="cls-2" d="M58.56,14.27H56v13.5H53.51V14.27H51V12.21h7.59v2.06Z"/><path class="cls-2" d="M73.21,18.22a2.85,2.85,0,0,0-.75-1.56A2,2,0,0,0,71,16.18a2.32,2.32,0,0,0-1.31.4,2.68,2.68,0,0,0-1,1.05h0v-6H66.28V27.78H68.4l.26-1.08h0a2.17,2.17,0,0,0,.89.91,2.69,2.69,0,0,0,1.32.33,2,2,0,0,0,1.91-1.19A8.62,8.62,0,0,0,73.44,23v-1.8A14.57,14.57,0,0,0,73.21,18.22Zm-2.35,4.64a14.13,14.13,0,0,1-.1,1.95,2,2,0,0,1-.34,1,.79.79,0,0,1-.65.3,1.23,1.23,0,0,1-.59-.15,1.21,1.21,0,0,1-.43-.44V19.05a1.56,1.56,0,0,1,.44-.76,1,1,0,0,1,.69-.29.69.69,0,0,1,.6.3,2.43,2.43,0,0,1,.3,1c0,.48.08,1.17.08,2.06v1.47Z"/></g><polygon class="cls-2" points="88.3 12.21 84.8 12.21 84.8 27.94 87.07 27.94 87.07 15.16 89.58 27.94 91.67 27.94 94.29 14.87 94.29 27.96 96.51 27.96 96.51 12.21 92.9 12.21 90.66 24.65 88.3 12.21"/><path class="cls-2" d="M103.2,28H105V16.4h-2.45v9.13c-.41.7-1.86,1.28-1.86-.12v-9H98.25v9.36c0,2,2.68,3.73,4.55.76Z"/><rect class="cls-2" x="114.44" y="16.4" width="2.27" height="11.56"/><path class="cls-2" d="M115.64,15.05h0a1.44,1.44,0,0,1-1.43-1.43v-.35a1.44,1.44,0,0,1,1.43-1.43h0a1.43,1.43,0,0,1,1.42,1.43v.35A1.43,1.43,0,0,1,115.64,15.05Z"/><path class="cls-2" d="M110.77,20.08h2c.06-1,.12-3.87-3-3.87-2.56,0-3.26,1.63-3.26,3.09s.74,2.48,2.84,4.11c1.78.93,1.86,3.07.38,3.07a1.06,1.06,0,0,1-1.12-1.13v-1h-2.1v1.2c0,1,.7,2.64,3.15,2.64s3.3-1.36,3.3-3.46-4.43-4.15-4.43-5.59c0-1.67,2.2-1.48,2.2-.27Z"/><path class="cls-2" d="M120.89,19.14a36.09,36.09,0,0,0,0,5.94c.11,1.74,2,1.75,2,0V23.76H125c0,2.33-.82,4.23-3.11,4.23-2.68,0-3.45-1.9-3.45-3.92V20.69c0-2.71,1.16-4.54,3.38-4.54,3,0,3,2.1,3,3.07V20.5l-2,.15V19.1C122.86,18,121.51,17.05,120.89,19.14Z"/><rect class="cls-3" width="125" height="40"/></g></g></svg>