<svg xmlns="http://www.w3.org/2000/svg" viewBox="0 0 397.36 164.4"><defs><style>.cls-1{fill:#fff;fill-rule:evenodd;}</style></defs><title>자산 1</title><g id="레이어_2" data-name="레이어 2"><g id="Layer_1" data-name="Layer 1"><path class="cls-1" d="M376.09,137.76c-.24.87-.93,1.31-1.44,1.92h-.24v.48l-3.6,3.12-1.92,2.16h-.48l-.24.48h-.48l-.48.72c-.67.47-.95.28-1.2,1.2l-.72.24v.24h-.48l-.24.48h-.48l-.48.72-1,.24-.24.48h-.48l-.72,1h-.48l-.24.48-1,.24-.72,1h-.72v.24h-.48v.24h-.48v.24l-1,.24v.24l-.72.24-.24.48-1,.24-.24.48h-.48l-.24.48-1.2.24v.24h-.48v.24l-1,.24v.24l-1.2.24v.24l-1.44.24v.24l-1,.24v.24h-.48l-.24.48-1.44.24v.24l-1.2.24v.24l-1,.24v.24l-4.32.72c-6.22,2.22-13,3.12-21.6,3.12l-8.88-.24v-.24h-1.68v-.24h-1.68v-.24h-1.2v-.24h-1.2V163h-1.44v-.24l-2.88-.48V162h-.72v-.24h-.72v-.24h-.72v-.24l-2.88-.24v-.24l-1.44-.24v-.24l-1-.24v-.24l-2.16-.48v-.24h-.48v-.24h-.48v-.24h-.48v-.24l-1.44-.48v-.24l-2.16-.48V157h-.48l-.24-.48h-.72v-.24h-.48V156h-.48v-.24h-.48v-.24h-.48l-.48-.72-1-.24-.24-.48-1.44-.48v-.24h-.48v-.24h-.48v-.24h-.48v-.24h-.48l-.48-.72-1-.24-.24-.48h-.48l-1-1.2-1-.24v-.24l-.72-.24-.24-.48h-.48l-.24-.48h-.48l-1.68-1.92h-.48l-.24-.48h-.48l-.48-.72h-.48l-2.88-3.12-.72-.24L257.77,138l-1.44-1.2v-.48l-.72-.48v-.48l-.72-.48v-.48L253,132.72v-.48l-.72-.48v-.48H252v-.48h-.24v-.48h-.24v-.48l-1.44-1.2-.24-1-.72-.48v-.48l-.48-.24-.24-1.2-.48-.24-.48-1.44-.48-.24v-.72l-1-.72-.48-1.44h-.24V120h-.24v-.48h-.24l-.48-1.44h-.24l-.48-2.16-.48-.24-2.64-6.24-.24-2.4H240v-.72h-.24v-.48h-.24v-1h-.24v-.72h-.24l-.48-2.64h-.24l-.24-1.92h-.24V98.4h-.24V97.2h-.24V96h-.24V94.32h-.24V92.88h-.24L236.41,85c0-6.27-.33-13,1.2-17.76l.48-3.6h.24l.24-1.68h.24V61.2h.24V60h.24l.24-1.44h.24v-.48H240v-1h.24l.48-3.12H241v-.48h.24V52.8h.24l.24-1h.24v-.48h.24v-.72h.24v-.48h.24v-.48h.24V49.2h.24l.48-1.44h.24l.24-1.44h.24V45.6l.48-.24v-.72h.24v-.48h.24v-.48h.24V43.2h.24v-.48l1-.72.24-1h.24v-.48h.24v-.48h.24V39.6l.48-.24v-.48h.24V38.4h.24v-.48h.24v-.48l.48-.24v-.48l.72-.48.24-1,1.44-1.2.24-1.2.48-.24v-.48l.72-.48V31.2l1.92-1.68V29l.72-.48v-.48l.72-.48v-.48l3.12-2.88.24-.72.72-.48V22.8h.48l3.12-3.36h.48l.72-1h.48l.24-.48h.48l1.68-1.92h.48v-.24h.48l.24-.48H270l.24-.48,1-.24,1.2-1.44,1-.24.24-.48h.48l.24-.48h.48l.24-.48,1.2-.24.24-.48,1.44-.48.24-.48,1-.24.48-.72h.48V8.64l1.44-.48V7.92h.72V7.68l1-.24V7.2L284.65,7V6.72h.48V6.48h.48V6.24h.48V6l1.44-.48V5.28h.72V5H289V4.8l1-.24V4.32h.72V4.08h.48V3.84l3.6-.48V3.12h.72V2.88h.48V2.64h1V2.4h.72V2.16l2.16-.24C304.62.29,310.58,0,317.05,0l9.12.24V.48h1.68c1.22.36,2.92.6,4.08,1h1.2v.24h1v.24h1v.24h1.2V2.4H337v.24h.72v.24h.72v.24h.72v.24l3.6.48v.24l1,.24v.24l1.44.24V5h.48v.24h.72l.24.48h.48V6h.72l.24.48h.48v.24h.72V7h.48V7.2h1v.24l1.44.48v.24h.72V8.4h.48v.24h.48l.24.48h.48l.48.72,1,.24.24.48h.48v.24h.48V11h.48v.24h.48v.24h.48v.24h.48V12l.72.24.24.48h.48l.24.48h.48l.48.72h.48l.48.72,1,.24.48.72h.48v.24l.72.24.24.48H366l.24.72h.24L367,18h.48l.24.48h.48l.48.72h.48l1.92,2.16,3.36,2.88v.48l1,.72v.48l2.16,1.68v.48l.72.48V29h.24l.24.72.48.24v.48l.48.24V31h.48l.24.72.48.24v.48l1,.72v.48h.24v.48h.24v.48h.24V35l1,.72v.48l.48.24v.72l1,.72v.48l.48.24v.48h.24v.48h.24v.48h.24v.48h.24V41h.24v.48h.24V42h.24l.24,1,.48.24.24.72h.24l.72,2.16.48.24v.48h.24v.48H390l.48,2.64h.24v.48l.48.24.48,1.44h.24v1h.24l.24,1h.24v.72h.24v.48h.24l.24,1.44h.24v1h.24v.72h.24v1.44h.24V61.2h.24v.72h.24l.72,4.32h.24v1H396v1h.24v1.92h.24l.24,4.08H397v4.08h.24c.35,1.22,0,6.77-.24,7.68l-.24,6.48h-.24v1.68h-.24V96c-.58,1.93-1,4.4-1.68,6.24l-1,5.52h-.24l-.24,1.44h-.24l-.24,1h-.24v.72h-.24v.48h-.24v.72h-.24v.72h-.24v.48h-.24v.48H391v.48l-.48.24-.48,2.88-.48.24-.24.72h-.24l-.72,2.16-.48.24v.48l-.48.24v.48l-.48.24v.72h-.24v.48h-.24v.48h-.24v.48h-.24v.48h-.24l-.24,1-.72.48-.24.72-.48.24v.72l-.48.24v.48l-1,.72-.48,1.44-.48.24v.48l-.72.48v.48l-.48.24v.48l-1,.48v.48l-.72.48c-.78,1.1-1.17,2.73-2.64,3.12ZM137.77,2.64h1.44v.24h19.2c2,0,6-.64,6.72.48v.48c.36.41.24,1.39.24,2.16V117.12c0,2.89-.42,5.35.48,7.68v.72l.48.24.48,1.44.48.24v.48h.24v.48l1.2,1v.48l.72.24.48.72,1,.24.24.48,1.44.48.24.48h.72v.24h1c2.47.79,6.41.48,9.6.48h31.68a24,24,0,0,0,5.28-.24,2.78,2.78,0,0,1,3.12,1c.68.69.24,4.87.24,6.72v13.68c0,2.29.3,4.81,0,6.48l-.72.24c-.52.46-2.19.24-3.12.24H168.25V161l-6.48-.24v-.24l-1.68-.24v-.24h-.48v-.24l-2.4-.48v-.24l-1.44-.48v-.24h-.48v-.24h-.48v-.24h-.48v-.24l-2.16-.72-.24-.48-1.44-.48-.48-.72h-.24l-.24-.48h-.48l-1.2-1.44h-.48l-.24-.48h-.48l-.24-.48-1.2-1V151l-.48-.24v-.48l-1.44-1.2v-.48l-.48-.24v-.24l-.72-.48-.48-1.44-.48-.24v-.48h-.24l-.24-1h-.24v-.72h-.24v-.48h-.24v-.48h-.24v-.48h-.24l-.48-1.44h-.24l-.24-1.44h-.24v-.72H138v-.48h-.24v-.72h-.24v-1h-.24l-.24-5.28a25,25,0,0,1-.24-5.52V10.32c0-2.52-.35-5,0-7a3.15,3.15,0,0,0,1-.72Zm-39.6.48h1.68l.24.72c.24.28,0,5.17,0,6.48,0,6.36.17,13.59,0,19.2l-.72.48v.24l-1,.24-.24.48h-.48l-.48.72h-.48l-.24.48-1.44.48-.24.48-1,.24v.24l-1,.24v.24h-.72v.24h-.48v.24H91v.24H90V35l-1.2.24v.24l-1,.24V36h-.72v.24h-.48v.24h-1v.24H85V37h-.72v.24h-.72v.24l-2.88.48v.24l-6,.24a25,25,0,0,1-6.48.24V38.4H64.81v-.24l-4.56-.24v-.24h-1.2v-.24h-1V37.2h-1V37h-1.2v-.24h-1.2v-.24h-1v-.24L51.85,36v-.24h-.72v-.24h-1v-.24h-1V35l-1.92-.24v-.24l-3.12-.24c-1.91-.55-4.33-.88-6.24-1.44H36.25v-.24H34.81V32.4h-2.4v-.24c-1.37-.38-5.62.06-6.72.24l-4.08.24c-1.75.52-4.06.92-5.76,1.44L12,34.56v.24h-.48V35h-1v.24l-1.44.48V36H8.65v.24H8.17v.24l-1.44.24V37H6.25L6,37.44H5.53l-.24.48-1.44.24v.24l-1,.24-.24.48a3.62,3.62,0,0,1-1.92.48A5.26,5.26,0,0,0,0,38.88V35.76c.22-.29,0-4.93,0-6.24v-11a43.89,43.89,0,0,1,.24-6.72c.3-.16.33-.38.48-.48h.48l.24-.48h.48l.24-.48h.48l.24-.48h.72l.24-.48,1.2-.24V8.88h.48l.24-.48h.72V8.16l1-.24V7.68l2.88-.48V7h.72V6.72h.72V6.48h.72V6.24l2.4-.48V5.52l2.4-.24V5h1V4.8l5-.48V4.08l7.92-.24v.24h2.88L44.89,6v.24h.72v.24h1v.24h1V7h1.2V7.2h1v.24l2.88.24v.24h1v.24h1V8.4h1.2v.24h1v.24h1.2v.24h.72v.24l2.64.24v.24l5,.48v.24l7.44.24v-.24L79,10.32v-.24h1.44V9.84h1.2V9.6l1.68-.24V9.12H84V8.88h1V8.64h.48V8.4h1V8.16h.48V7.92l2.88-.48V7.2h.48V7H91V6.72h.72V6.48l1-.24V6h.48l.24-.48h.48V5.28h.48V5h.48V4.8h.48V4.56h.48L96,4.08h.48V3.84H97V3.6l1.2-.24V3.12Zm214.8,24v.24l-4.8.48v.24h-1v.24h-1v.24h-1v.24h-1V29h-1v.24h-.48v.24l-1.2.24V30h-1v.24h-1v.24h-1v.24h-.48V31h-.72v.24h-.48l-.24.48-1.2.24-.24.48-1,.24-.24.48h-.48v.24h-.48v.24h-.48v.24h-.48v.24h-.48v.24l-1,.24-.24.48-1,.24-.48.72h-.48l-.48.72h-.48l-.24.48h-.48l-.72,1h-.48l-.24.48-1,.24L282.73,41l-3.6,3.12v.48l-.48.24v.48L276,47.76v.48l-.48.24-.24,1-.48.24v.48l-.72.48-.24,1-.72.48v.48l-.48.24-.24.72h-.24l-.24,1-.48.24v.48l-.48.24v1h-.24v.48h-.24l-.24,1.2-.72.48V59h-.24v.48h-.24v.72h-.24V61h-.24v.48l-.48.24-.24,1h-.24L264.73,74.4,264.49,79h-.24a24.06,24.06,0,0,0,.24,6.24v2.88h.24v1.68H265V91.2h.24l.24,2.16h.24v1.2h.24v.72h.24v1.2h.24V97h.24v1h.24v.72h.24l.24,2.4h.24l.24,1.2.48.24V103h.24l.24,1h.24v.72h.24v.72h.24v.48l.72.48v.48h.24v.48h.24V108H271v.72h.24v.48l.48.24v.48l.48.24.24,1,.48.24v.48l.72.48.24,1,.48.24V114l1,.72.48,1.44,1.44,1.2.24.72h.48v.24l.72.48v.48l.48.24V120l.72.48,1.68,1.92H282v.24l1,.72,1.92,2.16h.48l.24.48,1,.24.24.48.72.24.72,1h.48l.48.72h.48l.48.72h.48v.24h.48v.24h.48v.24h.48l.24.48h.48v.24h.72V131H294v.24h.48v.24l.72.24.24.48,1,.24v.24l1,.24v.24h.72l.24.48h.48v.24l2.88.48v.24l1.44.24v.24h.48v.24h1v.24h.72v.24h1v.24h1v.24h1.2v.24l2.64.24V137h2.16a30.89,30.89,0,0,0,7.44.24V137h2.4v-.24l2.64-.24v-.24h1.2v-.24l1.92-.24v-.24h.72v-.24h1v-.24H331v-.24l1.44-.24v-.24l2.88-.48v-.24h.48l.24-.48h.72V133l1-.24v-.24l1-.24.24-.48.72-.24v-.24h.48V131h.48v-.24h.72v-.24h.48l.24-.48,1.44-.48.24-.48h.48l.72-1h.48l.24-.48h.48l1-1.2,1-.24.48-.72H349l.48-.72h.48l1.2-1.68,3.36-2.88v-.48l.72-.48v-.48l1.92-1.68.24-.72.72-.48v-.48l.48-.24.24-1,.48-.24v-.48l.48-.24v-.48l.48-.24.48-1.44,1-.72.48-1.44h.24v-.48h.24V108l.48-.24.24-1.44h.24v-.48h.24v-.72l.48-.24,1-2.88h.24l.24-1H366l.24-1.2h.24v-.72h.24v-1H367V96.72h.24V95.28c2.37-7.73,2.46-18.48,0-26.16L367,66l-1-2.88-.48-.24v-.72h-.24v-.48h-.24l-.24-1.44h-.24v-.48l-.48-.24V59h-.24v-.48h-.24v-.48h-.24v-.72h-.24v-.72h-.24l-.24-1h-.24V55.2l-.48-.24-.24-1-.48-.24v-.48l-.72-.48L360,51.36l-.48-.24v-.48l-.72-.48-.48-1.44-.72-.48-.24-.72-1.92-1.68v-.48l-.72-.48V44.4l-.72-.48L352.33,42h-.48v-.24l-1-.72-.24-.72h-.24l-.48-.72h-.48l-.72-1-1-.24-.24-.48h-.48l-1-1.2h-.48l-.48-.72h-.48l-.48-.72-1-.24-.24-.48h-.72l-.24-.48h-.48v-.24h-.48V33.6h-.48v-.24h-.48v-.24h-.48l-.24-.48h-.48l-.24-.48h-.48v-.24h-.48v-.24h-.48v-.24h-.48V31.2h-.48V31l-1-.24v-.24L332.41,30v-.24h-.72v-.24h-.48v-.24h-.72V29h-.72V28.8h-1v-.24h-1v-.24h-1v-.24h-1.2v-.24h-1.2V27.6h-1.44v-.24h-1.92v-.24ZM33.85,60.48h61.2c1.51,0,3.78-.29,4.56.48.41.36.25.42.48,1h.24l-.24,1.44v4.56c0,6.71.3,14.46,0,20.4l-.72.48c-.93.91-2.77.24-4.32.24H51.13c-4.24,0-9.74-.56-13.2.48l-2.16.24c-1.62.65-2.69,2.21-3.84,3.36l-1.68,1.44c-.34.51-.25,1.28-.48,1.92h-.24v1.44c-1,3.46-.48,9-.48,13.2,0,16.33-.18,33.27.24,49.2-.57.33-1,1-1.68,1.2l-1.92-.24H.73a4.29,4.29,0,0,0-.72-.72v-67c.64-.75.13-3.84.48-5H.73V87.12H1l.48-2.64h.24v-.72h.24v-1h.24v-.72h.24v-1.2h.24V80.4h.24v-.72h.24V79l.48-.24.24-1,.72-.48.24-1.2.48-.24v-.48L6,74.88V74.4l.48-.24.24-1,.72-.48v-.48l2.4-2.16,2.4-2.64,1-.24.48-.72h.48l.24-.48h.48l.24-.48L16.57,65l.48-.72,1.2-.24.24-.48H19v-.24l1-.24v-.24h1.68v-.24h1V62.4h.48v-.24h1v-.24h.72v-.24h1v-.24l4.8-.72c1-.09,2.75.29,3.36-.24Z"/></g></g></svg>