<svg xmlns="http://www.w3.org/2000/svg" viewBox="0 0 357.14 172.73"><defs><style>.cls-1{fill:#0095ff;}</style></defs><title>자산 1</title><g id="레이어_2" data-name="레이어 2"><g id="레이어_1-2" data-name="레이어 1"><path class="cls-1" d="M263,35.2A10.39,10.39,0,0,0,252.6,45.59V126a10.39,10.39,0,1,0,20.78,0V45.59A10.39,10.39,0,0,0,263,35.2Z"/><circle class="cls-1" cx="262.99" cy="13.64" r="13.64" transform="translate(107.96 226.51) rotate(-56.9)"/><path class="cls-1" d="M199.68,35.2a32.79,32.79,0,0,0-32.79,32.47h0V126a10.39,10.39,0,1,0,20.78,0V68a12,12,0,0,1,24,0v58a10.39,10.39,0,1,0,20.78,0V67.67h0A32.79,32.79,0,0,0,199.68,35.2Z"/><path class="cls-1" d="M56.22,36.08,47.6,41.2A32.78,32.78,0,0,0,0,70.13H0V103.9H0a32.79,32.79,0,0,0,44.8,30.18v5.85a12,12,0,0,1-12,12,14.72,14.72,0,0,1-10.31-4.84,9.28,9.28,0,0,0-6.85-3h0c-9.53,0-14.51,11.46-7.89,18.31a34.86,34.86,0,0,0,25,10.26,32.8,32.8,0,0,0,32.79-32.47h0V41.41A6.2,6.2,0,0,0,56.22,36.08Zm-11.41,67.2a12.21,12.21,0,0,1-11.58,12.3,12,12,0,0,1-12.45-12V70.74A12.2,12.2,0,0,1,32.35,58.45a12,12,0,0,1,12.46,12Z"/><path class="cls-1" d="M83.77,127.59h0v0Z"/><path class="cls-1" d="M149.35,127.59v-.33c0,.11,0,.22,0,.33Z"/><path class="cls-1" d="M116.56,35.2A32.8,32.8,0,0,0,83.77,67.67h0V103.9h0a32.79,32.79,0,0,0,32.79,32.46c14.06,0,26.15-6.73,30.78-20.81a10.37,10.37,0,0,0-9.86-13.6h0a11.55,11.55,0,0,0-10.36,6.73,11.64,11.64,0,0,1-10.15,6.9,12,12,0,0,1-12.42-12V100s0,0,0,0l24-5.21,10.32-2.25a13.27,13.27,0,0,0,10.46-13V67.67h0A32.78,32.78,0,0,0,116.56,35.2Zm12,36.88v.62l-24,5.21s0,0,0,0V68.31A12.21,12.21,0,0,1,116.15,56a12,12,0,0,1,12.42,12Z"/><path class="cls-1" d="M357.13,67.67a32.78,32.78,0,0,0-65.56,0h0V103.9h0a32.78,32.78,0,0,0,32.78,32.46c14.06,0,26.16-6.73,30.78-20.81a10.37,10.37,0,0,0-9.85-13.6h0a11.55,11.55,0,0,0-10.37,6.73,11.64,11.64,0,0,1-10.15,6.9,12,12,0,0,1-12.42-12V100l0,0,24-5.21,10.32-2.25a13.27,13.27,0,0,0,10.46-13V67.67Zm-20.77,4.41v.62l-24,5.21s0,0,0,0V68.31A12.21,12.21,0,0,1,323.94,56a12,12,0,0,1,12.42,12Z"/></g></g></svg>