<svg xmlns="http://www.w3.org/2000/svg" viewBox="0 0 22.13 22.13"><defs><style>.cls-1{fill:#000102;stroke:#000102;stroke-miterlimit:10;stroke-width:0.2px;}</style></defs><title>자산 1</title><g id="레이어_2" data-name="레이어 2"><g id="Layer_1" data-name="Layer 1"><path class="cls-1" d="M11.06,22a11,11,0,1,1,11-11A11,11,0,0,1,11.06,22Zm0-20.59a9.63,9.63,0,1,0,9.63,9.62A9.64,9.64,0,0,0,11.06,1.44Z"/><rect class="cls-1" x="10.89" y="2.91" width="0.8" height="1.47"/><rect class="cls-1" x="10.89" y="17.57" width="0.8" height="1.47"/><rect class="cls-1" x="17.88" y="10.57" width="1.47" height="0.8"/><rect class="cls-1" x="3.22" y="10.57" width="1.47" height="0.8"/><path class="cls-1" d="M12.6,11.29a1.24,1.24,0,1,1-1.24-1.24A1.25,1.25,0,0,1,12.6,11.29Zm-.8,0a.44.44,0,0,0-.44-.43.43.43,0,0,0-.43.43.44.44,0,0,0,.43.44A.44.44,0,0,0,11.8,11.29Z"/><rect class="cls-1" x="8.58" y="7.04" width="1.07" height="4" transform="translate(-3.72 9.09) rotate(-45)"/><rect class="cls-1" x="11.42" y="8.02" width="5.42" height="1.07" transform="translate(-1.95 12.36) rotate(-44.5)"/></g></g></svg>