<svg xmlns="http://www.w3.org/2000/svg" viewBox="0 0 2206.03 651.05"><defs><style>.cls-1{fill:#ee1d52;}.cls-2{fill:#fff;}.cls-3{fill:#69c9d0;}.cls-4{fill:none;}</style></defs><title>자산 1</title><g id="레이어_2" data-name="레이어 2"><g id="Layer_1" data-name="Layer 1"><path class="cls-1" d="M206,463.32l2.13,6A57.68,57.68,0,0,1,206,463.32Zm-99.17-42.88c3.75-32.38,16.48-50.52,40.48-69.11,34.34-25.18,77.23-10.94,77.23-10.94V255.87a178.59,178.59,0,0,1,31.17,1.94V366.55s-42.88-14.25-77.21,10.94c-24,18.59-36.75,36.74-40.49,69.12-.11,17.61,3.05,40.6,17.62,60.49q-5.4-2.89-11-6.59C112.55,478,106.7,444.3,106.86,420.44Zm326-320.82c-23.62-27-32.56-54.27-35.79-73.42h29.72S420.84,76.42,464,125.81l.6.66A172.55,172.55,0,0,1,432.84,99.62Z"/><path class="cls-1" d="M576,176.2V282.75s-37.91-1.54-66-9c-39.18-10.42-64.36-26.38-64.36-26.38s-17.4-11.41-18.81-12.19V455.3c0,12.24-3.21,42.84-13,68.37-12.8,33.39-32.55,55.3-36.18,59.77,0,0-24,29.63-66.41,49.58-38.2,18-71.74,17.54-81.77,18,0,0-58,2.39-110.16-33a219.53,219.53,0,0,1-31.45-26.37l.26.19c52.18,35.39,110.15,33,110.15,33,10-.45,43.58,0,81.77-18,42.36-20,66.41-49.59,66.41-49.59,3.59-4.46,23.44-26.38,36.18-59.78,9.78-25.52,13-56.12,13-68.37V209c1.4.79,18.8,12.2,18.8,12.2s25.18,16,64.36,26.38c28.07,7.45,66,9,66,9V173.09c13,3,24,3.86,31.19,3.11Z"/><path class="cls-2" d="M544.79,173.09v83.47s-37.9-1.55-66-9c-39.18-10.42-64.36-26.39-64.36-26.39s-17.4-11.4-18.8-12.2V429.05c0,12.25-3.22,42.85-13,68.37-12.8,33.4-32.55,55.31-36.19,59.78,0,0-24,29.64-66.4,49.58-38.19,18-71.74,17.54-81.77,18,0,0-58,2.39-110.16-33l-.26-.18A207.41,207.41,0,0,1,72.32,574c-16.66-21.2-26.87-46.24-29.43-53.39a.14.14,0,0,1,0-.09c-4.14-12.43-12.81-42.25-11.63-71.15,2.1-51,19.28-82.26,23.83-90.11a212.21,212.21,0,0,1,46.27-56.51,192.48,192.48,0,0,1,55-32.55,187.3,187.3,0,0,1,38.77-11.4,190.33,190.33,0,0,1,29.46-2.93v84.47s-42.89-14.25-77.23,10.94c-24,18.59-36.73,36.73-40.48,69.11-.16,23.85,5.69,57.58,37.76,80.09q5.59,3.72,11,6.59A85.94,85.94,0,0,0,175.8,526.6c31.33,20.69,57.58,22.14,91.15,8.7,22.41-8.87,39.19-29.12,47.15-51.56,4.91-14,4.84-28.13,4.84-42.7V26.21h78.13c3.23,19.15,12.16,46.42,35.78,73.43a172.83,172.83,0,0,0,31.78,26.84c3.44,3.72,21,22,43.58,33.32A169.46,169.46,0,0,0,544.79,173.09Z"/><path class="cls-3" d="M11.79,494.66v.08l1.93,5.48C13.51,499.58,12.78,497.64,11.79,494.66Z"/><path class="cls-3" d="M156.34,270.2a192.48,192.48,0,0,0-55,32.55,212.28,212.28,0,0,0-46.25,56.62c-4.54,7.82-21.73,39.13-23.82,90.12-1.19,28.9,7.48,58.71,11.62,71.15v.09c2.61,7.08,12.78,32.12,29.43,53.38a207.75,207.75,0,0,0,15.53,17.61,217,217,0,0,1-46.71-43.8c-16.51-21-26.7-45.8-29.35-53.12l-.07-.15v-.11C7.6,482.15-1.1,452.3.11,423.37c2.1-51,19.29-82.26,23.83-90.11a211.79,211.79,0,0,1,46.25-56.63,192,192,0,0,1,55-32.55,186.94,186.94,0,0,1,38.77-11.4,192.45,192.45,0,0,1,60.64-.9v24.09a190.09,190.09,0,0,0-29.45,2.84,187.36,187.36,0,0,0-38.79,11.49Z"/><path class="cls-3" d="M397.05,26.21H318.93V441.07c0,14.57.06,28.64-4.84,42.69-7.89,22.42-24.68,42.67-47,51.66-33.58,13.49-59.83,12-91.14-8.7a85.8,85.8,0,0,1-20.17-19.53c26.68,14.23,50.56,14,80.14,2.11,22.24-9.05,39.17-29.3,47-51.73,4.92-14,4.86-28.13,4.86-42.69V0H395.58s-1.22,10.33,1.47,26.21ZM544.79,150v23.08A169.54,169.54,0,0,1,508.2,159.8c-22.56-11.27-40.14-29.6-43.58-33.32a121,121,0,0,0,12.4,7.13C504.45,147.3,531.4,151.41,544.79,150Z"/><path class="cls-4" d="M1701.76,383.87a60.11,60.11,0,0,1-2.61-17.52v-.43A64.52,64.52,0,0,0,1701.76,383.87Zm129.15-17.95v.43a60.11,60.11,0,0,1-2.61,17.52A66.09,66.09,0,0,0,1830.91,365.92Z"/><path class="cls-3" d="M1699.15,366.35a60.11,60.11,0,0,0,2.61,17.52,8.42,8.42,0,0,0,.36,1.18A65.85,65.85,0,0,0,1765,431.39v66.67c-32.44,0-55.68,1.13-91-19.78-40.37-23.85-63-67.47-63-112.77,0-46.69,25.37-93.5,68.37-116,31.18-16.36,54.9-16.48,85.71-16.48v66.63a65.9,65.9,0,0,0-65.89,65.89Z"/><path class="cls-1" d="M1831.43,366.35a59.77,59.77,0,0,1-2.6,17.52,9.5,9.5,0,0,1-.37,1.18,65.82,65.82,0,0,1-62.92,46.34v66.67c32.45,0,55.68,1.13,91-19.78,40.37-23.85,63.06-67.47,63.06-112.77,0-46.69-25.37-93.5-68.37-116-31.17-16.36-54.91-16.48-85.72-16.48v66.63a65.9,65.9,0,0,1,65.9,65.89Z"/><path class="cls-2" d="M745.17,172.54h244l-22.55,67.15h-63.8v257H824.23V239.69H745.17Zm646.74,0v67.15H1471v257h78.56V239.69h63.8l22.6-67.15Zm-349.63,76.52a38,38,0,1,0-38-38,38,38,0,0,0,38,38ZM1004.2,496.64h77V275.92h-77Zm354.17-249.48h-90.08l-77.64,77.72V172.79h-76.53l-.26,323.85h77.3V412.25l24.07-21.78,75,106.17h82.62L1264.2,341.37Zm739,94.21,94.21-94.21h-90.08l-77.64,77.72V172.79H1947.3l-.25,323.85h77.3V412.25l24.12-21.78,75,106.17H2206Zm-198,24.14C1899.31,438.7,1839.18,498,1765,498s-134.3-59.33-134.3-132.52S1690.83,233,1765,233s134.33,59.35,134.33,132.53Zm-68.43,0A65.89,65.89,0,1,0,1765,431.39h0a65.87,65.87,0,0,0,65.91-65.83v-.05Z"/></g></g></svg>