<svg xmlns="http://www.w3.org/2000/svg" viewBox="0 0 737.01 194.23"><defs><style>.cls-1,.cls-2{fill:#43b149;}.cls-1{fill-rule:evenodd;}</style></defs><title>자산 1</title><g id="레이어_2" data-name="레이어 2"><g id="레이어_1-2" data-name="레이어 1"><path class="cls-1" d="M414.05,173.06c0,11.25-8.34,20.38-18.64,20.38h0c-10.31,0-18.65-9.13-18.65-20.38V24.17c0-11.25,8.34-20.38,18.65-20.38h0c10.3,0,18.64,9.13,18.64,20.38Z"/><path class="cls-1" d="M0,30.66V173.84a19.6,19.6,0,1,0,39.19,0V84.55L70.1,145.37c3.29,6.49,8.44,12.4,15.71,14.34a25.43,25.43,0,0,0,23.49-6.09,35.29,35.29,0,0,0,7.13-11c2.3-5.1,5-10.07,7.55-15.07,3.2-6.29,6.26-12.65,9.46-18.94q4.25-8.35,8.4-16.74c1.35-2.75,2.81-5.45,4.18-8.34v90.31a19.6,19.6,0,0,0,39.2,0V145.65c0-6,0-12,0-18,0-6.6,0-13.2,0-19.81s0-13.48,0-20.22c0-6.41,0-12.83,0-19.24,0-5.6,0-11.21,0-16.81,0-4.29,0-8.58,0-12.88,0-2.63.1-5.25-.05-7.88-.3-5.4-.34-11.48-3.06-16.35C178.47,8,171.44,2.68,163.84,2.59c-7.79-.09-16,2.89-20.26,9.63-1.15,1.83-2.68,3.53-3.65,5.47L93,111.37,42.6,12.22c-2.38-4.74-7.21-8-12.15-9.53a26.38,26.38,0,0,0-8-1.43C10,1.26,0,11.8,0,24.81"/><circle class="cls-2" cx="570.19" cy="25.6" r="25.6"/><path class="cls-1" d="M515,56.74a68.75,68.75,0,1,0,68.74,68.74A68.74,68.74,0,0,0,515,56.74Zm0,102.4c-16.85,0-30.5-15.07-30.5-33.66S498.19,91.82,515,91.82s30.5,15.07,30.5,33.66S531.88,159.14,515,159.14Z"/><path class="cls-1" d="M316,147.51l-.2.06c-3.17,1-5.22,3.66-7.83,5.6-14.68,10.89-38.29,8.81-48-7.78-.46-.79-4-10.32-3.78-10.32h74.81a16.8,16.8,0,0,0,8.2-4.78c8.89-9.48,5.49-25,1.3-35.86-5.69-14.67-16.57-25.13-30.57-31.85a62.11,62.11,0,0,0-16.55-4.86A65.62,65.62,0,0,0,239.63,74a70.62,70.62,0,0,0-17.56,26.53c-9.34,25-3.68,53.61,13.61,73.53,20.32,23.4,65.26,25.8,90,9.21,4.17-2.79,8.66-5.69,11.32-10.08,6.47-10.67.52-23.58-11.83-25.75A20,20,0,0,0,316,147.51Zm-56.76-42c4.2-12.9,18-17.36,30.18-14.22,8.87,2.27,15.69,9.69,15.93,19h-47A47.34,47.34,0,0,1,259.21,105.53Z"/><path class="cls-1" d="M737,115.89A67.51,67.51,0,0,0,735.13,98c-2.83-11.69-8.94-22.62-18.77-29.59A46,46,0,0,0,703.62,62,66.85,66.85,0,0,0,689,59.27c-10.81-.72-21.56.68-30.34,7.52-1,.76-5.8,4.84-5.42,6.12-1.82-1-1.9-3.08-3.07-4.66A19,19,0,0,0,616,79.65V175.1a18.92,18.92,0,0,0,37.72,2.11V115.57a22.6,22.6,0,0,1,40.88-13.34c.07.09.14.17.2.26a23.36,23.36,0,0,1,1.71,2.91c.26.49.6.92.83,1.43a14.18,14.18,0,0,1,.86,3,22.73,22.73,0,0,1,.82,5.74v61.59a18.91,18.91,0,0,0,37.72-2.06L737,117Z"/></g></g></svg>