<svg xmlns="http://www.w3.org/2000/svg" viewBox="0 0 87 21"><defs><style>.cls-1{fill:#fff;}</style></defs><title>자산 1</title><g id="레이어_2" data-name="레이어 2"><g id="Layer_1" data-name="Layer 1"><path class="cls-1" d="M13.73,11.13a4.4,4.4,0,0,1,2.18-4,4.79,4.79,0,0,0-3.7-2.08A5.39,5.39,0,0,0,10,5.48,10.51,10.51,0,0,1,8.36,6a5.11,5.11,0,0,1-1.48-.46A4.87,4.87,0,0,0,5,5.1a4.6,4.6,0,0,0-2.41.73A5.12,5.12,0,0,0,.85,7.75,7.22,7.22,0,0,0,0,11.36a11.89,11.89,0,0,0,.63,3.78,12.23,12.23,0,0,0,1.49,3.17,10.38,10.38,0,0,0,1.41,1.81A2.34,2.34,0,0,0,5.31,21a4.55,4.55,0,0,0,1.53-.44,4.22,4.22,0,0,1,1.78-.4,4.09,4.09,0,0,1,1.71.4,4.39,4.39,0,0,0,1.62.42,2.62,2.62,0,0,0,1.73-.82,4.93,4.93,0,0,0,.62-.69c.22-.3.47-.65.73-1.05s.38-.61.56-.95a9.62,9.62,0,0,0,.5-1.07l.18-.47c.05-.16.1-.33.16-.49a4.47,4.47,0,0,1-1.35-1A4.58,4.58,0,0,1,13.73,11.13Z"/><polygon class="cls-1" points="28.36 14.88 28.26 14.88 24.16 5.37 20.95 5.37 20.95 20.71 23.75 20.71 23.75 10.77 23.88 10.77 27.31 18.66 29.27 18.66 32.69 10.77 32.82 10.77 32.82 20.71 35.66 20.71 35.66 5.37 32.46 5.37 28.36 14.88"/><path class="cls-1" d="M11.18,3.36A4.69,4.69,0,0,0,12.25.42V.21a1.49,1.49,0,0,0,0-.21,3.91,3.91,0,0,0-1.58.48A4.67,4.67,0,0,0,9.26,1.59,4.44,4.44,0,0,0,8.17,4.43v.2a1.5,1.5,0,0,0,0,.2A3.33,3.33,0,0,0,11.18,3.36Z"/><rect class="cls-1" x="68.44" y="5.37" width="3.15" height="15.34"/><path class="cls-1" d="M81.12,7.81a2.83,2.83,0,0,1,2.86,3h3v-.32c0-3-2.23-5.44-5.9-5.44-3.94,0-6.29,2.63-6.29,7.11v1.73c0,4.48,2.33,7.08,6.28,7.08C84.86,21,87,18.49,87,15.71v-.34H84a2.71,2.71,0,0,1-2.84,2.9c-1.91,0-3.13-1.38-3.13-4.34V12.2C78,9.26,79.24,7.81,81.12,7.81Z"/><path class="cls-1" d="M47.72,15.06c0,2-1.19,3.19-2.93,3.19s-2.94-1.13-2.94-3.19V5.37H38.72V15.5c0,3.27,2.29,5.5,6.07,5.5s6.07-2.23,6.07-5.5V5.37H47.72Z"/><path class="cls-1" d="M61.29,11.77,59,11.26c-1.33-.29-2-.88-2-1.77,0-1.18.94-1.92,2.47-1.92a2.36,2.36,0,0,1,2.65,2.08h2.93c0-2.71-2.26-4.6-5.57-4.6-3.15,0-5.62,1.68-5.62,4.69,0,2.61,1.73,3.82,3.82,4.28l2.23.53c1.5.35,2.26.85,2.26,1.9s-.93,2-2.68,2-2.87-1-3-2.15h-3c0,2.17,1.45,4.7,5.83,4.7,3.67,0,5.94-1.86,5.94-4.87C65.3,13.35,63.46,12.26,61.29,11.77Z"/></g></g></svg>