<svg xmlns="http://www.w3.org/2000/svg" viewBox="0 0 358.01 358.01"><defs><style>.cls-1{fill:#fff;}</style></defs><title>자산 1</title><g id="레이어_2" data-name="레이어 2"><g id="Layer_1" data-name="Layer 1"><path class="cls-1" d="M254.67,0H103.33A103.33,103.33,0,0,0,0,103.33V254.68A103.33,103.33,0,0,0,103.33,358H254.67A103.33,103.33,0,0,0,358,254.68V103.33A103.34,103.34,0,0,0,254.67,0M325,257.34a68.59,68.59,0,0,1-68.59,68.59H101.56A68.59,68.59,0,0,1,33,257.34V102.45a68.59,68.59,0,0,1,68.59-68.59H256.45A68.59,68.59,0,0,1,325,102.45Z"/><path class="cls-1" d="M179,87a92.9,92.9,0,1,0,92.9,92.89A92.89,92.89,0,0,0,179,87m0,153.11a60.22,60.22,0,1,1,60.22-60.22A60.22,60.22,0,0,1,179,240.11"/><path class="cls-1" d="M275,61.83a21.64,21.64,0,1,0,21.64,21.64A21.64,21.64,0,0,0,275,61.83"/></g></g></svg>