<svg xmlns="http://www.w3.org/2000/svg" viewBox="0 0 99.99 30.15"><defs><style>.cls-1{fill:#f90;}.cls-1,.cls-2{fill-rule:evenodd;}.cls-2{fill:#fff;}</style></defs><title>자산 1</title><g id="레이어_2" data-name="레이어 2"><g id="Layer_1" data-name="Layer 1"><path class="cls-1" d="M62,23.58c-5.8,4.28-14.24,6.57-21.49,6.57a38.87,38.87,0,0,1-26.25-10c-.54-.49-.05-1.16.6-.78a52.82,52.82,0,0,0,26.26,7,52.28,52.28,0,0,0,20-4.1c1-.42,1.81.64.85,1.36m2.41-2.77c-.74-.95-4.9-.44-6.78-.22-.57.07-.65-.43-.14-.79,3.32-2.33,8.77-1.66,9.41-.88s-.17,6.25-3.29,8.86c-.48.4-.94.19-.72-.34.7-1.75,2.27-5.67,1.52-6.63"/><path class="cls-2" d="M57.8,3.3V1a.57.57,0,0,1,.55-.58h10.2a.57.57,0,0,1,.59.58V3a3.22,3.22,0,0,1-.77,1.43L63.1,11.93a11.19,11.19,0,0,1,5.8,1.24,1.07,1.07,0,0,1,.54.89v2.42a.55.55,0,0,1-.75.52A11.7,11.7,0,0,0,58,17c-.36.19-.73-.19-.73-.52V14.19a2.75,2.75,0,0,1,.38-1.56l6.11-8.76H58.4a.56.56,0,0,1-.59-.57M20.69,17.48H17.6a.57.57,0,0,1-.55-.53V1.07A.57.57,0,0,1,17.64.5h2.89a.57.57,0,0,1,.56.53V3.1h.06A4.09,4.09,0,0,1,25.22.16c1.94,0,3.15.94,4,2.94A4.57,4.57,0,0,1,37.1,1.9c1,1.33.78,3.28.78,5v10a.59.59,0,0,1-.6.58h-3.1a.59.59,0,0,1-.55-.58V8.47a19.5,19.5,0,0,0-.09-3,1.61,1.61,0,0,0-1.82-1.37,2.06,2.06,0,0,0-1.85,1.3,9.57,9.57,0,0,0-.29,3.05V16.9a.58.58,0,0,1-.59.57h-3.1a.58.58,0,0,1-.56-.57V8.48c0-1.78.29-4.38-1.91-4.38s-2.14,2.54-2.14,4.38V16.9a.58.58,0,0,1-.59.57M77.9.17c4.59,0,7.07,4,7.07,9,0,4.85-2.74,8.69-7.07,8.69-4.5,0-7-3.94-7-8.86s2.49-8.8,7-8.8m0,3.25c-2.28,0-2.42,3.1-2.42,5s0,6.09,2.39,6.09,2.52-3.35,2.52-5.38A14.9,14.9,0,0,0,80,4.94a2,2,0,0,0-2-1.54m13,14.08H87.85a.6.6,0,0,1-.56-.58V1A.57.57,0,0,1,87.88.5h2.87a.6.6,0,0,1,.56.44V3.37h0C92.23,1.2,93.44.16,95.58.16A4,4,0,0,1,99.19,2c.8,1.27.8,3.4.8,4.94V17a.59.59,0,0,1-.59.5H96.3a.59.59,0,0,1-.55-.5V8.35c0-1.73.2-4.28-1.93-4.28A2,2,0,0,0,92,5.34a7,7,0,0,0-.5,3v8.56a.59.59,0,0,1-.6.57M49.69,9.88a6,6,0,0,1-.58,3.28A2.51,2.51,0,0,1,47,14.57c-1.19,0-1.88-.91-1.88-2.24,0-2.64,2.36-3.12,4.6-3.12v.67m3.12,7.54a.64.64,0,0,1-.73.08,7.44,7.44,0,0,1-1.77-2.06,6.15,6.15,0,0,1-5.11,2.25c-2.6,0-4.63-1.61-4.63-4.83a5.26,5.26,0,0,1,3.3-5.06,21.29,21.29,0,0,1,5.82-1.07v-.4a3.89,3.89,0,0,0-.38-2.24,2.07,2.07,0,0,0-1.74-.81,2.35,2.35,0,0,0-2.48,1.86.66.66,0,0,1-.54.57l-3-.32a.54.54,0,0,1-.46-.65C41.78,1.1,45.07,0,48,0a7,7,0,0,1,4.66,1.54C54.18,3,54,4.82,54,6.86v4.83a4.23,4.23,0,0,0,1.17,2.87.58.58,0,0,1,0,.82l-2.37,2.06h0M9.12,9.89a6,6,0,0,1-.58,3.28A2.51,2.51,0,0,1,6.4,14.58c-1.19,0-1.88-.91-1.88-2.24,0-2.64,2.36-3.12,4.6-3.12v.67m3.12,7.54a.64.64,0,0,1-.73.08,7.86,7.86,0,0,1-1.78-2.06,6.13,6.13,0,0,1-5.1,2.25C2,17.7,0,16.09,0,12.87a5.24,5.24,0,0,1,3.3-5A21.68,21.68,0,0,1,9.12,6.74v-.4A4,4,0,0,0,8.75,4.1,2.08,2.08,0,0,0,7,3.29a2.38,2.38,0,0,0-2.5,1.86A.65.65,0,0,1,4,5.72L1,5.4a.55.55,0,0,1-.46-.65C1.2,1.11,4.49,0,7.43,0a7,7,0,0,1,4.66,1.54C13.6,3,13.45,4.83,13.45,6.88V11.7a4.23,4.23,0,0,0,1.17,2.87.58.58,0,0,1,0,.82l-2.36,2.05h0"/></g></g></svg>